<?xml version="1.0" standalone="no"?><!DOCTYPE svg PUBLIC "-//W3C//DTD SVG 1.1//EN" "http://www.w3.org/Graphics/SVG/1.1/DTD/svg11.dtd"><svg t="1596724767184" class="icon" viewBox="0 0 1024 1024" version="1.1" xmlns="http://www.w3.org/2000/svg" p-id="3536" xmlns:xlink="http://www.w3.org/1999/xlink" width="200" height="200"><defs><style type="text/css"></style></defs><path d="M570.88 60.416c16.896 0 30.208-13.824 30.208-30.208 0-16.896-13.312-30.208-30.208-30.208s-30.208 13.312-30.208 30.208 13.312 30.208 30.208 30.208zM453.12 60.416c16.384 0 30.208-13.824 30.208-30.208 0-16.896-13.312-30.208-30.208-30.208s-30.208 13.312-30.208 30.208 13.312 30.208 30.208 30.208zM885.248 360.96c-4.608-80.896-34.304-156.672-83.456-217.088l-1.024-1.024c-2.56-3.584-6.144-7.168-9.216-10.752-1.536-1.536-2.56-3.584-4.608-5.12l-3.584-3.584c0-0.512-0.512-0.512-0.512-1.024-0.512-0.512-1.024-1.536-2.048-2.048 0 0-0.512 0-0.512-0.512-3.584-2.56-7.168-4.608-12.288-4.608s-9.728 2.048-12.8 5.12l-69.632 71.68c-3.584 3.584-5.632 8.192-5.632 13.312s2.048 10.24 5.632 13.312l0.512 0.512c1.024 1.024 2.048 2.56 3.584 4.096 1.024 1.536 2.048 2.56 4.096 4.608 1.024 1.024 2.048 2.56 3.584 4.096 1.024 1.536 2.048 2.56 3.584 4.608 1.024 1.024 2.048 2.56 3.584 4.096 1.024 1.536 2.048 3.584 3.584 4.608 1.024 1.536 2.048 2.56 2.56 4.608l3.584 5.12c1.024 1.536 1.536 2.56 2.56 4.608 1.024 1.536 1.536 3.584 2.56 5.12s1.536 2.56 2.048 4.608c1.024 1.536 1.536 3.584 2.56 5.12 0.512 1.536 1.536 3.584 2.048 4.608 0.512 1.536 1.536 3.584 2.048 5.632 0.512 1.536 1.024 3.584 2.048 5.12 0.512 1.536 1.536 4.096 2.048 5.632l1.536 5.12c0.512 1.536 1.024 4.096 1.536 5.632l1.536 5.12c0.512 1.536 1.024 4.096 1.536 6.144 0.512 1.536 1.024 3.584 1.024 5.12l1.536 6.144c0.512 1.536 0.512 3.584 1.024 5.12 0.512 2.048 0.512 4.608 1.024 6.656 0 1.536 0.512 3.584 0.512 5.12 0.512 2.048 0.512 4.608 1.024 6.656 0 1.536 0.512 2.56 0.512 4.608 0 2.56 0.512 5.12 0.512 7.68 0 1.024 0 2.56 0.512 4.096 0 4.096 0.512 7.68 0.512 11.776v287.744c0 34.816-8.192 67.072-22.016 96.256-1.536 0-3.584 0-5.12-0.512h-2.56c-43.52-0.512-82.944 10.752-119.808 30.208-45.056 26.112-83.456 36.864-131.584 35.328h-3.584c22.528 7.68 46.592 12.8 72.192 13.312h2.56c40.96 0.512 80.384-9.216 113.664-27.136 17.92-10.752 37.888-18.944 58.368-24.576a218.112 218.112 0 0 1-55.808 56.832c-39.936 29.696-89.6 47.104-143.36 47.104s-102.4-16.896-142.848-46.592c-56.832-39.936-93.696-105.472-93.696-180.224V379.904c0-4.096 0-7.68 0.512-11.776 0-1.024 0-2.56 0.512-4.096 0-2.56 0.512-5.12 0.512-7.68 0-1.536 0.512-2.56 0.512-4.608s0.512-4.608 1.024-6.656c0-1.536 0.512-3.584 1.024-5.12 0.512-2.048 0.512-4.608 1.024-6.656 0.512-1.536 0.512-3.584 1.024-5.12l1.536-6.144c0.512-1.536 1.024-3.584 1.024-5.12l1.536-6.144 1.536-5.12c0.512-1.536 1.024-4.096 1.536-5.632l1.536-5.12c0.512-1.536 1.536-4.096 2.048-5.632s1.024-3.584 2.048-5.12c0.512-1.536 1.536-3.584 2.048-5.632 0.512-1.536 1.536-3.584 2.048-4.608 1.024-1.536 1.536-3.584 2.56-5.12 0.512-1.536 1.536-3.584 2.56-4.608 1.024-1.536 1.536-3.584 2.56-5.12s1.536-2.56 2.56-4.608l3.584-5.12c1.024-1.536 2.048-2.56 2.56-4.608l3.584-5.12c1.024-1.536 2.048-2.56 3.584-4.608 1.024-1.536 2.048-2.56 3.584-4.608 1.024-1.024 2.048-2.56 3.584-4.096 1.024-1.536 2.048-2.56 4.096-4.608 1.024-1.024 2.048-2.56 3.584-4.096 0.512-0.512 1.024-1.024 1.536-2.048 2.56-3.584 4.608-7.168 4.608-11.776 0-5.12-1.536-9.728-5.12-12.8L268.288 122.368c-3.584-3.584-8.192-5.632-13.312-5.632-4.608 0-9.216 1.536-12.288 4.608 0 0.512-0.512 0.512-1.024 1.024l-1.024 0.512c-1.024 1.024-2.048 2.048-2.56 3.584-1.536 2.048-4.096 4.096-5.632 6.144-2.048 2.048-4.096 4.608-6.144 6.656-1.536 2.048-4.096 4.608-5.632 6.656s-4.096 5.12-5.632 7.168l-5.12 6.656c-1.536 2.048-3.584 5.12-5.12 7.168L199.68 174.08c-1.536 2.56-3.584 5.12-5.12 7.68-1.536 2.048-2.56 4.608-4.608 7.168-1.536 2.56-3.584 5.632-4.608 7.68s-2.56 5.12-4.096 7.168c-1.536 2.56-2.56 5.632-4.608 8.192-1.024 2.048-2.56 5.12-4.096 7.168-1.024 2.56-2.56 5.632-4.096 8.192-1.024 2.56-2.048 5.12-3.584 7.68-1.024 2.56-2.048 6.144-3.584 9.216-1.024 2.56-2.048 5.12-2.56 7.68-1.024 2.56-2.048 6.144-3.584 9.216-1.024 2.56-1.536 5.12-2.56 7.68-1.024 3.584-1.536 6.144-2.56 9.728-0.512 3.584-1.024 6.144-1.536 9.216-0.512 3.584-1.536 6.656-2.048 10.24l-1.536 7.68-1.536 10.24c-0.512 2.56-1.024 5.12-1.024 7.68-0.512 3.584-1.024 7.168-1.024 11.264-0.512 2.048-0.512 5.12-1.024 7.168-0.512 4.096-0.512 8.192-1.024 12.288 0 2.048-0.512 4.608-0.512 6.144-0.512 6.144-0.512 12.288-0.512 18.944v265.216c0 198.656 152.576 364.032 347.648 377.856 1.536 0 3.584 0 5.12 0.512h26.112c3.584 0 7.168 0 10.752-0.512h0.512c3.584 0 6.656-0.512 10.24-0.512h3.584c2.048 0 5.12-0.512 7.168-0.512 1.024 0 2.56 0 4.096-0.512 2.048 0 4.608-0.512 6.656-0.512 1.024 0 2.048-0.512 4.096-0.512 2.56-0.512 5.12-0.512 7.68-1.024 1.024 0 1.536 0 2.56-0.512l10.24-1.536c0.512 0 1.536-0.512 2.048-0.512l7.68-1.536c1.024 0 2.048-0.512 3.584-1.024l6.656-1.536c1.024-0.512 2.048-0.512 4.096-1.024l6.656-1.536c1.024-0.512 2.048-0.512 3.584-1.024 2.56-1.024 5.632-1.536 8.192-2.56 0.512 0 1.024 0 1.024-0.512 3.584-1.024 6.656-2.048 9.728-3.584 1.024-0.512 1.536-0.512 2.56-1.024 2.048-1.024 4.608-1.536 6.656-2.56 1.024-0.512 2.048-1.024 3.584-1.024 2.048-1.024 4.096-1.536 6.144-2.56l3.584-1.536c2.048-1.024 4.608-2.048 6.656-2.56 1.024-0.512 1.536-1.024 2.56-1.024 3.584-1.536 6.144-2.56 9.216-4.608 0.512 0 0.512-0.512 1.024-0.512 2.56-1.024 5.632-2.56 7.68-4.096 1.024-0.512 2.048-1.024 2.56-1.536 2.048-1.024 4.096-2.048 6.144-3.584l3.584-1.536c1.536-1.024 4.096-2.048 5.632-3.584 1.024-0.512 2.048-1.024 2.56-1.536 2.048-1.024 4.608-2.56 6.656-4.096 0.512-0.512 1.024-1.024 2.048-1.024 2.56-1.536 5.632-4.096 8.192-5.632 0.512-0.512 1.024-1.024 2.048-1.536 2.048-1.536 4.096-2.56 6.144-4.608 1.024-0.512 1.536-1.536 2.56-2.048 1.536-1.024 3.584-2.56 5.632-4.096 1.024-0.512 1.536-1.536 2.56-2.048 1.536-1.536 3.584-2.56 5.632-4.608 1.024-0.512 1.536-1.536 2.56-2.048 2.048-2.048 4.608-4.096 6.656-6.144l0.512-0.512c2.048-2.048 5.12-4.608 7.168-6.656l2.048-2.048 5.12-5.12 2.56-2.56c1.536-1.536 3.584-3.584 4.608-5.12 0.512-1.024 1.536-1.536 2.048-2.56 1.536-1.536 3.584-3.584 5.12-5.632 0.512-0.512 1.024-1.536 1.536-2.048 2.048-2.56 4.608-5.12 6.656-7.68l1.024-1.024c1.536-2.048 3.584-4.608 5.632-6.656 0.512-1.024 1.024-1.536 2.048-2.56 1.024-1.536 2.56-3.584 4.096-5.632 0.512-1.024 1.536-2.048 2.048-2.56 1.024-1.536 2.56-4.096 4.096-5.632 0.512-1.024 1.024-1.536 2.048-2.56 1.536-2.048 2.56-4.608 4.608-6.656 0.512-0.512 0.512-1.024 1.024-1.536 1.536-2.56 3.584-5.632 5.632-8.192 0.512-0.512 1.024-1.536 1.024-2.048 1.024-2.048 2.56-4.608 4.096-6.656l1.536-3.584c1.024-2.048 2.048-4.096 3.584-6.144l1.536-3.584c1.024-2.048 2.048-4.096 3.584-6.144 0.512-1.024 1.024-1.536 1.536-2.56 1.536-2.56 2.56-5.632 4.096-9.216v-4.096c1.536-3.584 2.56-6.144 4.096-9.728 0.512-1.024 0.512-2.048 1.024-2.56 1.024-2.048 1.536-4.608 2.56-6.656 0.512-1.024 1.024-2.048 1.024-3.584 0.512-2.048 1.536-4.608 2.048-6.144 0.512-1.024 0.512-2.048 1.024-3.584 0.512-2.048 1.536-4.608 2.048-7.168 0.512-1.024 0.512-1.536 1.024-2.56 1.024-3.584 2.048-6.656 2.56-10.24 0-0.512 0.512-1.024 0.512-1.536 0.512-2.56 1.536-5.632 2.048-8.192 0.512-1.024 0.512-2.048 1.024-3.584l1.536-6.656c0.512-1.024 0.512-2.048 0.512-4.096l1.536-6.656c0-1.024 0.512-2.048 0.512-3.584l1.536-8.192c0-0.512 0-1.536 0.512-2.048 0.512-3.584 1.024-6.656 1.536-10.752 0-1.024 0-1.536 0.512-2.56 0.512-2.56 0.512-5.12 1.024-7.68 0-1.024 0-2.56 0.512-4.096 0-2.048 0.512-4.608 0.512-7.168v-4.096c0-2.048 0-5.12 0.512-7.168V379.904c5.12-6.656 5.12-12.8 4.096-18.944z" p-id="3537"></path><path d="M441.344 168.96c16.896 0 30.72-13.312 30.208-30.208 0-16.896-13.312-30.208-30.208-30.208s-30.208 13.312-30.208 30.208c0 16.384 13.312 30.208 30.208 30.208zM551.936 138.752c0 16.896 13.312 30.208 30.208 30.208s30.208-13.312 30.208-30.208-13.312-30.208-30.208-30.208c-16.896-0.512-30.208 13.312-30.208 30.208zM681.984 104.96c16.896 0 30.208-13.824 30.208-30.208 0-16.896-13.312-30.208-30.208-30.208s-30.208 13.312-30.208 30.208 13.312 30.208 30.208 30.208zM341.504 104.96c16.896 0 30.72-13.824 30.208-30.208 0-16.896-13.312-30.208-30.208-30.208s-30.208 13.312-30.208 30.208 13.312 30.208 30.208 30.208zM662.528 733.184c13.312 0.512 26.112 2.048 39.424 4.608-29.696-13.824-62.976-23.04-97.792-24.064h-2.56c-43.52-0.512-82.944 10.752-119.808 30.208-45.056 26.112-83.456 36.864-131.584 35.328h-3.584c22.528 7.68 46.592 12.8 72.192 13.312h2.56c40.96 0.512 80.384-9.216 113.664-27.136 36.864-22.016 80.896-34.304 127.488-32.256zM588.288 798.72l1.536-1.024c-0.512 0.512-1.024 0.512-1.536 1.024z" p-id="3538"></path><path d="M472.576 748.032l-1.536 1.024c0.512-0.512 1.024-0.512 1.536-1.024z" p-id="3539"></path></svg>