<?xml version="1.0" standalone="no"?><!DOCTYPE svg PUBLIC "-//W3C//DTD SVG 1.1//EN" "http://www.w3.org/Graphics/SVG/1.1/DTD/svg11.dtd"><svg class="icon" width="200px" height="200.00px" viewBox="0 0 1024 1024" version="1.1" xmlns="http://www.w3.org/2000/svg"><path fill="#333333" d="M512 610.6c-140.9 0-255.4-114.6-255.4-255.4S371.1 99.7 512 99.7s255.4 114.6 255.4 255.4S652.9 610.6 512 610.6z m0-474.9c-121 0-219.5 98.5-219.5 219.5S391 574.6 512 574.6s219.5-98.5 219.5-219.5S633 135.7 512 135.7z"  /><path fill="#333333" d="M151.5 924.3l-35.6-5C129 824.6 176 737.5 248.3 674.1c72.9-64 166.6-99.3 263.7-99.3s190.8 35.2 263.7 99.3C848 737.5 895 824.6 908.1 919.3l-35.6 5C847.7 745.6 692.7 610.8 512 610.8S176.3 745.6 151.5 924.3z"  /></svg>