<?xml version="1.0" standalone="no"?><!DOCTYPE svg PUBLIC "-//W3C//DTD SVG 1.1//EN" "http://www.w3.org/Graphics/SVG/1.1/DTD/svg11.dtd"><svg class="icon" width="200px" height="200.00px" viewBox="0 0 1024 1024" version="1.1" xmlns="http://www.w3.org/2000/svg"><path fill="#333333" d="M510.5 567.4c-139.2 0-252.4-113.2-252.4-252.4S371.3 62.6 510.5 62.6 762.9 175.8 762.9 315 649.7 567.4 510.5 567.4z m0-400.5c-81.7 0-148.1 66.4-148.1 148.1s66.4 148.1 148.1 148.1S658.6 396.7 658.6 315s-66.4-148.1-148.1-148.1z"  /><path fill="#333333" d="M904.9 961.4c-28.8 0-52.1-23.3-52.1-52.1 0-93.8-37.3-181.3-104.9-246.4-64-61.5-148.1-95.4-236.9-95.4-28.8 0-52.1-23.3-52.1-52.1s23.3-52.1 52.1-52.1c115.9 0 225.7 44.2 309.2 124.5 42.8 41.2 76.5 89.6 100.1 143.8 24.4 56.2 36.8 116 36.8 177.7-0.1 28.8-23.4 52.1-52.2 52.1z"  /><path fill="#333333" d="M119.1 961.4c-28.8 0-52.1-23.3-52.1-52.1 0-61.7 12.4-121.5 36.8-177.7 23.6-54.3 57.3-102.6 100.1-143.8 83.5-80.3 193.3-124.5 309.2-124.5 28.8 0 52.1 23.3 52.1 52.1s-23.3 52.1-52.1 52.1c-88.8 0-172.9 33.9-236.9 95.4-67.6 65.1-104.9 152.6-104.9 246.4 0 28.8-23.4 52.1-52.2 52.1z"  /></svg>